<svg width="148" height="24" viewBox="0 0 148 24" fill="none" xmlns="http://www.w3.org/2000/svg">
<path d="M5.328 18.204L0 0.444H4.056L6.384 8.148C6.696 9.204 6.984 10.26 7.272 12.012C7.56 10.26 7.848 9.252 8.16 8.148L10.344 0.444H14.688L16.776 8.148C17.064 9.228 17.352 10.308 17.664 12.012C18.024 10.212 18.288 9.228 18.6 8.196L20.976 0.444H24.936L19.512 18.204H15.72L12.48 6.54L9.144 18.204H5.328Z" fill="black"/>
<path d="M27.537 18.204H23.481L29.817 0.444H33.609L39.921 18.204H35.793L34.545 14.46H28.809L27.537 18.204ZM31.209 7.404L29.937 11.196H33.441L32.169 7.404C31.977 6.804 31.761 6.108 31.689 5.676C31.617 6.084 31.425 6.756 31.209 7.404Z" fill="black"/>
<path d="M45.876 18.204H41.988V0.444H45.876V7.452H52.74V0.444H56.628V18.204H52.74V11.052H45.876V18.204Z" fill="black"/>
<path d="M63.3161 3.924H59.2841V0.444H67.0361V18.204H63.3161V3.924Z" fill="black"/>
<path d="M77.7527 18.204H70.7927V0.444H77.5127C82.7207 0.444 86.3447 4.092 86.3447 9.372C86.3447 14.556 82.8167 18.204 77.7527 18.204ZM77.1287 4.044H74.6807V14.604H77.3687C80.4407 14.604 82.2407 12.66 82.2407 9.372C82.2407 6.012 80.3447 4.044 77.1287 4.044Z" fill="black"/>
<path d="M96.728 18.204V1.02H103.016C106.328 1.02 108.368 2.7 108.368 5.46C108.368 7.476 107.48 8.844 105.704 9.54C107.696 10.188 108.704 11.58 108.704 13.692C108.704 16.452 106.64 18.204 103.376 18.204H96.728ZM102.992 2.556H98.456V8.844H103.208C105.368 8.844 106.592 7.644 106.592 5.604C106.592 3.684 105.296 2.556 102.992 2.556ZM103.376 10.356H98.456V16.644H103.376C105.632 16.644 106.952 15.468 106.952 13.476C106.952 11.532 105.608 10.356 103.376 10.356Z" fill="black"/>
<path d="M113.19 18.204H111.534V0.708H113.19V18.204Z" fill="black"/>
<path d="M115.896 12.396C115.896 8.844 118.392 6.276 121.8 6.276C125.208 6.276 127.704 8.844 127.704 12.396C127.704 15.924 125.208 18.492 121.8 18.492C118.392 18.492 115.896 15.924 115.896 12.396ZM117.576 12.372C117.576 15.108 119.304 17.004 121.8 17.004C124.272 17.004 126.024 15.108 126.024 12.372C126.024 9.684 124.272 7.764 121.8 7.764C119.304 7.764 117.576 9.684 117.576 12.372Z" fill="black"/>
<path d="M129.56 12.06C129.56 8.892 131.6 6.276 135.008 6.276C137.024 6.276 138.56 7.212 139.304 8.916L139.472 6.588H140.912V17.844C140.912 21.3 138.704 23.556 135.296 23.556C132.32 23.556 130.232 21.876 129.776 19.068H131.432C131.792 20.94 133.232 22.044 135.32 22.044C137.696 22.044 139.28 20.436 139.28 18.012V15.252C138.488 16.884 136.88 17.844 134.888 17.844C131.576 17.844 129.56 15.228 129.56 12.06ZM131.216 12.036C131.216 14.412 132.68 16.356 135.128 16.356C137.648 16.356 139.136 14.532 139.136 12.036C139.136 9.564 137.696 7.74 135.152 7.74C132.656 7.74 131.216 9.684 131.216 12.036Z" fill="black"/>
<path d="M145.784 18.468C144.968 18.468 144.272 17.796 144.272 17.004C144.272 16.188 144.968 15.492 145.784 15.492C146.6 15.492 147.296 16.188 147.296 17.004C147.296 17.796 146.6 18.468 145.784 18.468Z" fill="black"/>
</svg>
