<svg  viewBox="0 0 130 27" fill="currentColor" xmlns="http://www.w3.org/2000/svg">
<path d="M8.18826 27L0.196259 0.360001H6.28026L9.77226 11.916C10.2403 13.5 10.6723 15.084 11.1043 17.712C11.5363 15.084 11.9683 13.572 12.4363 11.916L15.7123 0.360001H22.2283L25.3603 11.916C25.7923 13.536 26.2243 15.156 26.6923 17.712C27.2323 15.012 27.6283 13.536 28.0963 11.988L31.6603 0.360001H37.6003L29.4643 27H23.7763L18.9163 9.504L13.9123 27H8.18826Z" fill="currentColor"/>
<path d="M41.5018 27H35.4178L44.9218 0.360001H50.6098L60.0778 27H53.8858L52.0138 21.384H43.4098L41.5018 27ZM47.0098 10.8L45.1018 16.488H50.3578L48.4498 10.8C48.1618 9.9 47.8378 8.856 47.7298 8.208C47.6218 8.82 47.3338 9.828 47.0098 10.8Z" fill="currentColor"/>
<path d="M69.0103 27H63.1783V0.360001H69.0103V10.872H79.3063V0.360001H85.1383V27H79.3063V16.272H69.0103V27Z" fill="currentColor"/>
<path d="M95.1704 5.58H89.1224V0.360001H100.75V27H95.1704V5.58Z" fill="currentColor"/>
<path d="M116.825 27H106.385V0.360001H116.465C124.277 0.360001 129.713 5.832 129.713 13.752C129.713 21.528 124.421 27 116.825 27ZM115.889 5.76H112.217V21.6H116.249C120.857 21.6 123.557 18.684 123.557 13.752C123.557 8.712 120.713 5.76 115.889 5.76Z" fill="currentColor"/>
</svg>
